<svg width="22" height="22" viewBox="0 0 22 22" fill="none" xmlns="http://www.w3.org/2000/svg">
<path fill-rule="evenodd" clip-rule="evenodd" d="M15.8801 5.89633L15.8797 6.50439L15.8788 14.6765C15.8788 16.6247 15.0933 18.4778 13.6834 19.8554C12.2734 21.2329 10.3766 22 8.38302 22C6.38942 22 4.49256 21.2329 3.08276 19.8554C1.67271 18.478 0.887207 16.6248 0.887207 14.6765C0.887207 12.7281 1.67271 10.8756 3.08276 9.49812C4.49269 8.1205 6.38903 7.35307 8.38302 7.35307H9.77399V11.203H8.38302C7.43632 11.203 6.53832 11.5664 5.86879 12.2206C5.19938 12.8746 4.82778 13.7517 4.82778 14.6765C4.82778 15.6013 5.19938 16.4788 5.86879 17.1329C6.53832 17.7865 7.43645 18.1503 8.38302 18.1503C9.32959 18.1503 10.2277 17.7865 10.8973 17.1329C11.5663 16.4788 11.9383 15.6018 11.9383 14.6845V0H15.8624L16.059 0.355422C16.67 1.46175 17.494 2.51062 18.5161 3.28443C19.3063 3.88298 20.2006 4.30525 21.1887 4.47451L21.8872 4.5942L21.1376 8.30579L20.4664 8.18861C19.6669 8.04902 18.8819 7.81203 18.1471 7.47363C17.3035 7.08478 16.5211 6.56023 15.8801 5.89633Z" fill="#FA194A"/>
</svg>
