<svg width="24" height="17" viewBox="0 0 24 17" fill="none" xmlns="http://www.w3.org/2000/svg">
<path d="M23.4853 2.94175C23.2127 1.91528 22.4095 1.10686 21.3896 0.832509C19.5411 0.333984 12.1287 0.333984 12.1287 0.333984C12.1287 0.333984 4.7164 0.333984 2.86783 0.832509C1.84799 1.1069 1.04478 1.91528 0.772168 2.94175C0.276855 4.8023 0.276855 8.68416 0.276855 8.68416C0.276855 8.68416 0.276855 12.566 0.772168 14.4266C1.04478 15.453 1.84799 16.2278 2.86783 16.5021C4.7164 17.0007 12.1287 17.0007 12.1287 17.0007C12.1287 17.0007 19.541 17.0007 21.3896 16.5021C22.4095 16.2278 23.2127 15.453 23.4853 14.4266C23.9806 12.566 23.9806 8.68416 23.9806 8.68416C23.9806 8.68416 23.9806 4.8023 23.4853 2.94175ZM9.70446 12.2086V5.15972L15.8997 8.68425L9.70446 12.2086Z" fill="#FA194A"/>
</svg>
