<svg width="115" height="40" viewBox="0 0 115 40" fill="none" xmlns="http://www.w3.org/2000/svg">
<rect x="0.348837" y="0.348837" width="114.1" height="39.3023" rx="6.16279" fill="white"/>
<rect x="0.348837" y="0.348837" width="114.1" height="39.3023" rx="6.16279" stroke="black" stroke-width="0.697674"/>
<path d="M21.6141 23.5486C24.2923 22.0517 26.3403 20.9113 26.5153 20.8222C27.0754 20.5192 27.6531 19.7173 26.5153 19.0936C26.1477 18.8976 24.1697 17.7928 21.6141 16.3672L18.0957 19.9668L21.6141 23.5486Z" fill="#FFD400"/>
<path d="M18.0952 19.9668L6.85742 31.4962C7.11999 31.5319 7.41756 31.4606 7.76765 31.2646C8.50283 30.8547 16.3098 26.5067 21.6136 23.5486L18.0952 19.9668Z" fill="#FF3333"/>
<path d="M18.0952 19.9662L21.6135 16.3666C21.6135 16.3666 8.55527 9.11393 7.76758 8.68626C7.47 8.50806 7.13742 8.4546 6.83984 8.50806L18.0952 19.9662Z" fill="#48FF48"/>
<path d="M18.0955 19.966L6.84021 8.50781C6.3851 8.61473 6 9.02459 6 9.86212C6 11.1986 6 29.0185 6 30.1411C6 30.9074 6.29757 31.4598 6.85771 31.5132L18.0955 19.966Z" fill="#3BCCFF"/>
<path d="M33.8428 13.8145C33.7866 13.8145 33.7388 13.7948 33.6994 13.7554C33.66 13.716 33.6404 13.6682 33.6404 13.612V8.12072C33.6404 8.05886 33.66 8.00825 33.6994 7.96889C33.7388 7.92953 33.7866 7.90984 33.8428 7.90984H35.901C36.469 7.90984 36.9357 7.99701 37.3012 8.17133C37.6724 8.34566 37.9507 8.60434 38.1363 8.94737C38.3275 9.2904 38.4259 9.70934 38.4315 10.2042C38.4428 10.4516 38.4484 10.671 38.4484 10.8621C38.4484 11.0533 38.4428 11.2698 38.4315 11.5117C38.4203 12.0346 38.3247 12.4676 38.1447 12.8107C37.9648 13.1481 37.6921 13.4011 37.3265 13.5698C36.9666 13.7329 36.5055 13.8145 35.9432 13.8145H33.8428ZM34.8129 12.8444H35.901C36.2159 12.8444 36.4718 12.7994 36.6686 12.7094C36.8654 12.6195 37.0088 12.4761 37.0988 12.2793C37.1944 12.0768 37.245 11.8125 37.2506 11.4863C37.2562 11.3176 37.259 11.1714 37.259 11.0477C37.2647 10.9184 37.2647 10.7919 37.259 10.6681C37.259 10.5388 37.2562 10.3926 37.2506 10.2295C37.2394 9.76839 37.1241 9.42817 36.9048 9.20886C36.6855 8.98954 36.3368 8.87989 35.8588 8.87989H34.8129V12.8444ZM41.4102 13.8988C40.9603 13.8988 40.5807 13.8201 40.2715 13.6626C39.9678 13.5052 39.7344 13.283 39.5713 12.9962C39.4139 12.7094 39.3239 12.3749 39.3014 11.9925C39.2958 11.8912 39.293 11.7675 39.293 11.6213C39.293 11.4751 39.2958 11.3514 39.3014 11.2502C39.3239 10.8621 39.4167 10.5276 39.5798 10.2464C39.7485 9.95959 39.9847 9.73746 40.2883 9.58C40.5976 9.42255 40.9716 9.34382 41.4102 9.34382C41.8488 9.34382 42.22 9.42255 42.5236 9.58C42.8329 9.73746 43.0691 9.95959 43.2322 10.2464C43.4009 10.5276 43.4965 10.8621 43.519 11.2502C43.5246 11.3514 43.5274 11.4751 43.5274 11.6213C43.5274 11.7675 43.5246 11.8912 43.519 11.9925C43.4965 12.3749 43.4037 12.7094 43.2406 12.9962C43.0832 13.283 42.8498 13.5052 42.5405 13.6626C42.2368 13.8201 41.8601 13.8988 41.4102 13.8988ZM41.4102 13.0637C41.7082 13.0637 41.9388 12.9709 42.1019 12.7854C42.265 12.5942 42.3549 12.3158 42.3718 11.9503C42.3774 11.8659 42.3802 11.7563 42.3802 11.6213C42.3802 11.4863 42.3774 11.3767 42.3718 11.2923C42.3549 10.9324 42.265 10.6569 42.1019 10.4657C41.9388 10.2745 41.7082 10.1789 41.4102 10.1789C41.1122 10.1789 40.8816 10.2745 40.7185 10.4657C40.5554 10.6569 40.4655 10.9324 40.4486 11.2923C40.443 11.3767 40.4402 11.4863 40.4402 11.6213C40.4402 11.7563 40.443 11.8659 40.4486 11.9503C40.4655 12.3158 40.5554 12.5942 40.7185 12.7854C40.8816 12.9709 41.1122 13.0637 41.4102 13.0637ZM45.5362 13.8145C45.4575 13.8145 45.3985 13.7948 45.3591 13.7554C45.3197 13.716 45.286 13.6654 45.2579 13.6036L44.0517 9.68966C44.046 9.66154 44.0432 9.63624 44.0432 9.61375C44.0432 9.56313 44.0601 9.52096 44.0938 9.48722C44.1332 9.44785 44.1754 9.42817 44.2204 9.42817H44.8446C44.912 9.42817 44.9655 9.44785 45.0048 9.48722C45.0442 9.52096 45.0667 9.5547 45.0723 9.58844L45.899 12.3805L46.7762 9.61375C46.7875 9.57438 46.8128 9.53502 46.8521 9.49565C46.8915 9.45067 46.9505 9.42817 47.0293 9.42817H47.451C47.5297 9.42817 47.5888 9.45067 47.6282 9.49565C47.6675 9.53502 47.6928 9.57438 47.7041 9.61375L48.5813 12.3805L49.408 9.58844C49.4136 9.5547 49.4333 9.52096 49.467 9.48722C49.5064 9.44785 49.5598 9.42817 49.6273 9.42817H50.2515C50.3021 9.42817 50.3443 9.44785 50.378 9.48722C50.4174 9.52096 50.4371 9.56313 50.4371 9.61375C50.4371 9.63624 50.4314 9.66154 50.4202 9.68966L49.214 13.6036C49.1971 13.6654 49.1662 13.716 49.1212 13.7554C49.0818 13.7948 49.0228 13.8145 48.944 13.8145H48.3958C48.317 13.8145 48.2552 13.7948 48.2102 13.7554C48.1652 13.716 48.1343 13.6654 48.1174 13.6036L47.2401 10.9381L46.3629 13.6036C46.3404 13.6654 46.3067 13.716 46.2617 13.7554C46.2223 13.7948 46.1604 13.8145 46.0761 13.8145H45.5362ZM51.4604 13.8145C51.4041 13.8145 51.3563 13.7948 51.317 13.7554C51.2776 13.716 51.2579 13.6682 51.2579 13.612V9.63062C51.2579 9.57438 51.2776 9.52658 51.317 9.48722C51.3563 9.44785 51.4041 9.42817 51.4604 9.42817H52.152C52.2083 9.42817 52.2561 9.44785 52.2954 9.48722C52.3348 9.52658 52.3545 9.57438 52.3545 9.63062V9.97646C52.5007 9.79651 52.6863 9.64749 52.9112 9.52939C53.1418 9.40568 53.4257 9.34382 53.7632 9.34382C54.1062 9.34382 54.4042 9.42255 54.6573 9.58C54.9103 9.73184 55.1043 9.94834 55.2393 10.2295C55.3799 10.5107 55.4502 10.8481 55.4502 11.2417V13.612C55.4502 13.6682 55.4305 13.716 55.3911 13.7554C55.3518 13.7948 55.304 13.8145 55.2477 13.8145H54.5054C54.4492 13.8145 54.4014 13.7948 54.362 13.7554C54.3227 13.716 54.303 13.6682 54.303 13.612V11.2923C54.303 10.9662 54.2215 10.7103 54.0584 10.5247C53.9009 10.3392 53.6704 10.2464 53.3667 10.2464C53.0743 10.2464 52.8409 10.3392 52.6666 10.5247C52.4923 10.7103 52.4051 10.9662 52.4051 11.2923V13.612C52.4051 13.6682 52.3854 13.716 52.346 13.7554C52.3067 13.7948 52.2589 13.8145 52.2026 13.8145H51.4604ZM56.7325 13.8145C56.6763 13.8145 56.6285 13.7948 56.5891 13.7554C56.5498 13.716 56.5301 13.6682 56.5301 13.612V8.02794C56.5301 7.9717 56.5498 7.9239 56.5891 7.88454C56.6285 7.84517 56.6763 7.82549 56.7325 7.82549H57.4326C57.4889 7.82549 57.5367 7.84517 57.576 7.88454C57.6154 7.9239 57.6351 7.9717 57.6351 8.02794V13.612C57.6351 13.6682 57.6154 13.716 57.576 13.7554C57.5367 13.7948 57.4889 13.8145 57.4326 13.8145H56.7325ZM60.6941 13.8988C60.2442 13.8988 59.8646 13.8201 59.5553 13.6626C59.2517 13.5052 59.0183 13.283 58.8552 12.9962C58.6978 12.7094 58.6078 12.3749 58.5853 11.9925C58.5797 11.8912 58.5769 11.7675 58.5769 11.6213C58.5769 11.4751 58.5797 11.3514 58.5853 11.2502C58.6078 10.8621 58.7006 10.5276 58.8637 10.2464C59.0324 9.95959 59.2685 9.73746 59.5722 9.58C59.8815 9.42255 60.2555 9.34382 60.6941 9.34382C61.1327 9.34382 61.5039 9.42255 61.8075 9.58C62.1168 9.73746 62.353 9.95959 62.5161 10.2464C62.6848 10.5276 62.7804 10.8621 62.8029 11.2502C62.8085 11.3514 62.8113 11.4751 62.8113 11.6213C62.8113 11.7675 62.8085 11.8912 62.8029 11.9925C62.7804 12.3749 62.6876 12.7094 62.5245 12.9962C62.3671 13.283 62.1337 13.5052 61.8244 13.6626C61.5207 13.8201 61.144 13.8988 60.6941 13.8988ZM60.6941 13.0637C60.9921 13.0637 61.2227 12.9709 61.3858 12.7854C61.5488 12.5942 61.6388 12.3158 61.6557 11.9503C61.6613 11.8659 61.6641 11.7563 61.6641 11.6213C61.6641 11.4863 61.6613 11.3767 61.6557 11.2923C61.6388 10.9324 61.5488 10.6569 61.3858 10.4657C61.2227 10.2745 60.9921 10.1789 60.6941 10.1789C60.396 10.1789 60.1655 10.2745 60.0024 10.4657C59.8393 10.6569 59.7493 10.9324 59.7325 11.2923C59.7269 11.3767 59.724 11.4863 59.724 11.6213C59.724 11.7563 59.7269 11.8659 59.7325 11.9503C59.7493 12.3158 59.8393 12.5942 60.0024 12.7854C60.1655 12.9709 60.396 13.0637 60.6941 13.0637ZM65.0196 13.8988C64.7272 13.8988 64.4629 13.8426 64.2267 13.7301C63.9905 13.612 63.8021 13.4574 63.6615 13.2662C63.5266 13.0693 63.4591 12.85 63.4591 12.6082C63.4591 12.2146 63.6166 11.9025 63.9315 11.6719C64.252 11.4357 64.6738 11.2783 65.1967 11.1996L66.3524 11.0309V10.8537C66.3524 10.6175 66.2933 10.4348 66.1752 10.3054C66.0571 10.1761 65.8547 10.1114 65.5679 10.1114C65.3654 10.1114 65.1996 10.1536 65.0702 10.2379C64.9465 10.3167 64.8537 10.4235 64.7919 10.5585C64.7469 10.6316 64.6822 10.6681 64.5978 10.6681H63.9315C63.8696 10.6681 63.8218 10.6513 63.7881 10.6175C63.76 10.5838 63.7459 10.5388 63.7459 10.4826C63.7515 10.3926 63.7881 10.2829 63.8556 10.1536C63.923 10.0243 64.0299 9.90054 64.1761 9.78245C64.3223 9.65873 64.5107 9.5547 64.7412 9.47035C64.9718 9.386 65.2502 9.34382 65.5763 9.34382C65.9306 9.34382 66.2286 9.38881 66.4705 9.47878C66.7179 9.56313 66.9147 9.67841 67.0609 9.82462C67.2071 9.97083 67.314 10.1423 67.3814 10.3392C67.4489 10.536 67.4827 10.7441 67.4827 10.9634V13.612C67.4827 13.6682 67.463 13.716 67.4236 13.7554C67.3843 13.7948 67.3365 13.8145 67.2802 13.8145H66.597C66.5351 13.8145 66.4845 13.7948 66.4451 13.7554C66.4114 13.716 66.3945 13.6682 66.3945 13.612V13.283C66.3214 13.3899 66.223 13.4911 66.0993 13.5867C65.9756 13.6767 65.8238 13.7526 65.6438 13.8145C65.4695 13.8707 65.2614 13.8988 65.0196 13.8988ZM65.3064 13.0975C65.5032 13.0975 65.6804 13.0553 65.8378 12.9709C66.0009 12.8866 66.1274 12.7572 66.2174 12.5829C66.313 12.403 66.3608 12.178 66.3608 11.9081V11.731L65.5173 11.8659C65.1855 11.9165 64.9381 11.9981 64.775 12.1106C64.6119 12.223 64.5304 12.3608 64.5304 12.5239C64.5304 12.6476 64.5669 12.7544 64.64 12.8444C64.7188 12.9288 64.8172 12.9934 64.9353 13.0384C65.0533 13.0778 65.1771 13.0975 65.3064 13.0975ZM70.1928 13.8988C69.9004 13.8988 69.6417 13.851 69.4168 13.7554C69.1974 13.6542 69.0147 13.5136 68.8685 13.3336C68.7223 13.1537 68.6098 12.9428 68.5311 12.701C68.4523 12.4536 68.4074 12.1837 68.3961 11.8912C68.3905 11.79 68.3877 11.7 68.3877 11.6213C68.3877 11.537 68.3905 11.4442 68.3961 11.343C68.4074 11.0618 68.4495 10.8003 68.5226 10.5585C68.6014 10.3167 68.7138 10.1058 68.86 9.92585C69.0119 9.74027 69.1974 9.59688 69.4168 9.49565C69.6417 9.39443 69.9004 9.34382 70.1928 9.34382C70.4965 9.34382 70.7523 9.39724 70.9604 9.50409C71.1741 9.60531 71.3512 9.73746 71.4918 9.90054V8.02794C71.4918 7.9717 71.5087 7.9239 71.5424 7.88454C71.5818 7.84517 71.6324 7.82549 71.6943 7.82549H72.4112C72.4675 7.82549 72.5153 7.84517 72.5546 7.88454C72.594 7.9239 72.6137 7.9717 72.6137 8.02794V13.612C72.6137 13.6682 72.594 13.716 72.5546 13.7554C72.5153 13.7948 72.4675 13.8145 72.4112 13.8145H71.7449C71.683 13.8145 71.6324 13.7948 71.593 13.7554C71.5593 13.716 71.5424 13.6682 71.5424 13.612V13.2999C71.4018 13.4742 71.2219 13.6176 71.0026 13.7301C70.7889 13.8426 70.519 13.8988 70.1928 13.8988ZM70.5049 12.9962C70.7411 12.9962 70.9295 12.9428 71.07 12.836C71.2106 12.7291 71.3147 12.5942 71.3821 12.4311C71.4496 12.2624 71.4862 12.0909 71.4918 11.9165C71.4974 11.8153 71.5002 11.7085 71.5002 11.596C71.5002 11.4779 71.4974 11.3683 71.4918 11.267C71.4862 11.0983 71.4468 10.9381 71.3737 10.7862C71.3006 10.6288 71.1938 10.4994 71.0532 10.3982C70.9126 10.297 70.7298 10.2464 70.5049 10.2464C70.2687 10.2464 70.0803 10.2998 69.9397 10.4067C69.8048 10.5079 69.7064 10.6428 69.6445 10.8115C69.5826 10.9802 69.5461 11.1658 69.5349 11.3683C69.5292 11.537 69.5292 11.7057 69.5349 11.8744C69.5461 12.0768 69.5826 12.2624 69.6445 12.4311C69.7064 12.5998 69.8048 12.7376 69.9397 12.8444C70.0803 12.9456 70.2687 12.9962 70.5049 12.9962ZM77.6056 13.8988C77.1557 13.8988 76.7761 13.8201 76.4668 13.6626C76.1632 13.5052 75.9298 13.283 75.7667 12.9962C75.6093 12.7094 75.5193 12.3749 75.4968 11.9925C75.4912 11.8912 75.4884 11.7675 75.4884 11.6213C75.4884 11.4751 75.4912 11.3514 75.4968 11.2502C75.5193 10.8621 75.6121 10.5276 75.7752 10.2464C75.9439 9.95959 76.18 9.73746 76.4837 9.58C76.793 9.42255 77.167 9.34382 77.6056 9.34382C78.0442 9.34382 78.4154 9.42255 78.719 9.58C79.0283 9.73746 79.2645 9.95959 79.4276 10.2464C79.5963 10.5276 79.6919 10.8621 79.7144 11.2502C79.72 11.3514 79.7228 11.4751 79.7228 11.6213C79.7228 11.7675 79.72 11.8912 79.7144 11.9925C79.6919 12.3749 79.5991 12.7094 79.436 12.9962C79.2786 13.283 79.0452 13.5052 78.7359 13.6626C78.4322 13.8201 78.0555 13.8988 77.6056 13.8988ZM77.6056 13.0637C77.9036 13.0637 78.1342 12.9709 78.2973 12.7854C78.4603 12.5942 78.5503 12.3158 78.5672 11.9503C78.5728 11.8659 78.5756 11.7563 78.5756 11.6213C78.5756 11.4863 78.5728 11.3767 78.5672 11.2923C78.5503 10.9324 78.4603 10.6569 78.2973 10.4657C78.1342 10.2745 77.9036 10.1789 77.6056 10.1789C77.3075 10.1789 77.077 10.2745 76.9139 10.4657C76.7508 10.6569 76.6608 10.9324 76.644 11.2923C76.6384 11.3767 76.6355 11.4863 76.6355 11.6213C76.6355 11.7563 76.6384 11.8659 76.644 11.9503C76.6608 12.3158 76.7508 12.5942 76.9139 12.7854C77.077 12.9709 77.3075 13.0637 77.6056 13.0637ZM80.8598 13.8145C80.8036 13.8145 80.7558 13.7948 80.7164 13.7554C80.6771 13.716 80.6574 13.6682 80.6574 13.612V9.63062C80.6574 9.57438 80.6771 9.52658 80.7164 9.48722C80.7558 9.44785 80.8036 9.42817 80.8598 9.42817H81.5515C81.6078 9.42817 81.6556 9.44785 81.6949 9.48722C81.7343 9.52658 81.754 9.57438 81.754 9.63062V9.97646C81.9002 9.79651 82.0857 9.64749 82.3107 9.52939C82.5412 9.40568 82.8252 9.34382 83.1626 9.34382C83.5057 9.34382 83.8037 9.42255 84.0568 9.58C84.3098 9.73184 84.5038 9.94834 84.6388 10.2295C84.7794 10.5107 84.8497 10.8481 84.8497 11.2417V13.612C84.8497 13.6682 84.83 13.716 84.7906 13.7554C84.7513 13.7948 84.7035 13.8145 84.6472 13.8145H83.9049C83.8487 13.8145 83.8009 13.7948 83.7615 13.7554C83.7222 13.716 83.7025 13.6682 83.7025 13.612V11.2923C83.7025 10.9662 83.6209 10.7103 83.4579 10.5247C83.3004 10.3392 83.0698 10.2464 82.7662 10.2464C82.4738 10.2464 82.2404 10.3392 82.0661 10.5247C81.8917 10.7103 81.8046 10.9662 81.8046 11.2923V13.612C81.8046 13.6682 81.7849 13.716 81.7455 13.7554C81.7062 13.7948 81.6584 13.8145 81.6021 13.8145H80.8598ZM89.658 13.8145C89.3206 13.8145 89.0366 13.7554 88.806 13.6373C88.5755 13.5192 88.4039 13.3449 88.2915 13.1143C88.179 12.8782 88.1228 12.5857 88.1228 12.2371V10.3223H87.4564C87.4002 10.3223 87.3524 10.3026 87.313 10.2633C87.2736 10.2239 87.254 10.1761 87.254 10.1199V9.63062C87.254 9.57438 87.2736 9.52658 87.313 9.48722C87.3524 9.44785 87.4002 9.42817 87.4564 9.42817H88.1228V8.02794C88.1228 7.9717 88.1396 7.9239 88.1734 7.88454C88.2127 7.84517 88.2634 7.82549 88.3252 7.82549H89.0085C89.0647 7.82549 89.1125 7.84517 89.1519 7.88454C89.1912 7.9239 89.2109 7.9717 89.2109 8.02794V9.42817H90.2653C90.3215 9.42817 90.3693 9.44785 90.4087 9.48722C90.4481 9.52658 90.4677 9.57438 90.4677 9.63062V10.1199C90.4677 10.1761 90.4481 10.2239 90.4087 10.2633C90.3693 10.3026 90.3215 10.3223 90.2653 10.3223H89.2109V12.1527C89.2109 12.3833 89.2503 12.5632 89.329 12.6926C89.4134 12.8219 89.5567 12.8866 89.7592 12.8866H90.3412C90.3975 12.8866 90.4453 12.9063 90.4846 12.9456C90.524 12.985 90.5437 13.0328 90.5437 13.089V13.612C90.5437 13.6682 90.524 13.716 90.4846 13.7554C90.4453 13.7948 90.3975 13.8145 90.3412 13.8145H89.658ZM91.5028 13.8145C91.4466 13.8145 91.3988 13.7948 91.3594 13.7554C91.3201 13.716 91.3004 13.6682 91.3004 13.612V8.02794C91.3004 7.9717 91.3201 7.9239 91.3594 7.88454C91.3988 7.84517 91.4466 7.82549 91.5028 7.82549H92.2536C92.3154 7.82549 92.3632 7.84517 92.397 7.88454C92.4363 7.9239 92.456 7.9717 92.456 8.02794V9.95115C92.6078 9.7712 92.7934 9.62499 93.0127 9.51252C93.232 9.40005 93.502 9.34382 93.8225 9.34382C94.1655 9.34382 94.4636 9.42255 94.7166 9.58C94.9753 9.73184 95.1749 9.94834 95.3155 10.2295C95.4561 10.5107 95.5264 10.8481 95.5264 11.2417V13.612C95.5264 13.6682 95.5067 13.716 95.4674 13.7554C95.428 13.7948 95.3802 13.8145 95.324 13.8145H94.5648C94.5086 13.8145 94.4608 13.7948 94.4214 13.7554C94.382 13.716 94.3624 13.6682 94.3624 13.612V11.2923C94.3624 10.9662 94.2808 10.7103 94.1177 10.5247C93.9603 10.3392 93.7297 10.2464 93.426 10.2464C93.1336 10.2464 92.8974 10.3392 92.7175 10.5247C92.5432 10.7103 92.456 10.9662 92.456 11.2923V13.612C92.456 13.6682 92.4363 13.716 92.397 13.7554C92.3632 13.7948 92.3154 13.8145 92.2536 13.8145H91.5028ZM98.4863 13.8988C97.8621 13.8988 97.3673 13.7189 97.0018 13.359C96.6362 12.9991 96.4394 12.4873 96.4113 11.8238C96.4057 11.7675 96.4029 11.6972 96.4029 11.6129C96.4029 11.5229 96.4057 11.4526 96.4113 11.402C96.4338 10.9802 96.5294 10.6147 96.6981 10.3054C96.8724 9.99614 97.1114 9.75995 97.4151 9.59688C97.7187 9.42817 98.0758 9.34382 98.4863 9.34382C98.9418 9.34382 99.3242 9.43942 99.6335 9.63062C99.9428 9.81619 100.176 10.0777 100.334 10.4151C100.491 10.7469 100.57 11.1321 100.57 11.5707V11.7478C100.57 11.8041 100.55 11.8519 100.511 11.8912C100.471 11.9306 100.421 11.9503 100.359 11.9503H97.5585C97.5585 11.9503 97.5585 11.9587 97.5585 11.9756C97.5585 11.9925 97.5585 12.0065 97.5585 12.0178C97.5641 12.2146 97.6007 12.3973 97.6681 12.5661C97.7412 12.7291 97.8453 12.8613 97.9802 12.9625C98.1208 13.0637 98.2867 13.1143 98.4779 13.1143C98.6354 13.1143 98.7675 13.0918 98.8744 13.0469C98.9812 12.9962 99.0684 12.94 99.1359 12.8782C99.2033 12.8163 99.2511 12.7657 99.2793 12.7263C99.3299 12.6588 99.3692 12.6195 99.3973 12.6082C99.4311 12.5914 99.4789 12.5829 99.5407 12.5829H100.266C100.322 12.5829 100.367 12.5998 100.401 12.6335C100.44 12.6673 100.457 12.7094 100.452 12.7601C100.446 12.85 100.398 12.9597 100.308 13.089C100.224 13.2184 100.1 13.3449 99.9372 13.4686C99.7741 13.5923 99.5689 13.6964 99.3214 13.7807C99.0796 13.8594 98.8013 13.8988 98.4863 13.8988ZM97.5585 11.2417H99.4227V11.2164C99.4227 10.9971 99.3861 10.8059 99.313 10.6428C99.2399 10.4798 99.133 10.3504 98.9925 10.2548C98.8519 10.1592 98.6832 10.1114 98.4863 10.1114C98.2895 10.1114 98.1208 10.1592 97.9802 10.2548C97.8397 10.3504 97.7328 10.4798 97.6597 10.6428C97.5922 10.8059 97.5585 10.9971 97.5585 11.2164V11.2417Z" fill="black"/>
<path d="M34.8059 30.0234C34.6868 30.0234 34.5855 29.9817 34.502 29.8983C34.4186 29.8149 34.3769 29.7136 34.3769 29.5944V17.956C34.3769 17.8249 34.4186 17.7176 34.502 17.6342C34.5855 17.5508 34.6868 17.509 34.8059 17.509H39.5972C40.5268 17.509 41.3373 17.658 42.0285 17.956C42.7198 18.242 43.2561 18.683 43.6375 19.2789C44.0189 19.8629 44.2096 20.5959 44.2096 21.4779C44.2096 22.3718 44.0189 23.1107 43.6375 23.6947C43.2561 24.2668 42.7198 24.6959 42.0285 24.9819C41.3373 25.268 40.5268 25.411 39.5972 25.411H36.9334V29.5944C36.9334 29.7136 36.8917 29.8149 36.8083 29.8983C36.7367 29.9817 36.6354 30.0234 36.5043 30.0234H34.8059ZM36.8976 23.4266H39.5078C40.1991 23.4266 40.7294 23.2657 41.0989 22.9439C41.4684 22.6101 41.6531 22.1215 41.6531 21.4779C41.6531 20.882 41.4803 20.4052 41.1347 20.0477C40.789 19.6782 40.2467 19.4935 39.5078 19.4935H36.8976V23.4266ZM45.1425 30.0234C45.0233 30.0234 44.922 29.9817 44.8386 29.8983C44.7551 29.8149 44.7134 29.7136 44.7134 29.5944V17.7593C44.7134 17.6401 44.7551 17.5388 44.8386 17.4554C44.922 17.372 45.0233 17.3303 45.1425 17.3303H46.6263C46.7455 17.3303 46.8468 17.372 46.9303 17.4554C47.0137 17.5388 47.0554 17.6401 47.0554 17.7593V29.5944C47.0554 29.7136 47.0137 29.8149 46.9303 29.8983C46.8468 29.9817 46.7455 30.0234 46.6263 30.0234H45.1425ZM50.8749 30.2022C50.2552 30.2022 49.695 30.083 49.1944 29.8447C48.6939 29.5944 48.2946 29.2666 47.9966 28.8614C47.7106 28.4442 47.5676 27.9794 47.5676 27.4669C47.5676 26.6326 47.9013 25.9712 48.5687 25.4825C49.2481 24.9819 50.142 24.6482 51.2504 24.4813L53.6996 24.1238V23.7484C53.6996 23.2478 53.5745 22.8604 53.3242 22.5863C53.0739 22.3122 52.6448 22.1751 52.037 22.1751C51.6079 22.1751 51.2563 22.2645 50.9822 22.4433C50.72 22.6101 50.5233 22.8366 50.3922 23.1226C50.2969 23.2776 50.1598 23.355 49.9811 23.355H48.5687C48.4376 23.355 48.3363 23.3193 48.2648 23.2478C48.2052 23.1763 48.1754 23.0809 48.1754 22.9617C48.1873 22.771 48.2648 22.5386 48.4078 22.2645C48.5508 21.9904 48.7773 21.7282 49.0872 21.4779C49.3971 21.2157 49.7963 20.9952 50.285 20.8164C50.7736 20.6376 51.3636 20.5482 52.0549 20.5482C52.8057 20.5482 53.4374 20.6436 53.9499 20.8343C54.4743 21.0131 54.8915 21.2574 55.2013 21.5673C55.5112 21.8772 55.7377 22.2407 55.8807 22.6578C56.0237 23.075 56.0952 23.5159 56.0952 23.9808V29.5944C56.0952 29.7136 56.0535 29.8149 55.9701 29.8983C55.8867 29.9817 55.7854 30.0234 55.6662 30.0234H54.2181C54.087 30.0234 53.9797 29.9817 53.8963 29.8983C53.8248 29.8149 53.789 29.7136 53.789 29.5944V28.8971C53.6341 29.1236 53.4255 29.3381 53.1633 29.5407C52.9011 29.7314 52.5793 29.8923 52.1979 30.0234C51.8284 30.1426 51.3874 30.2022 50.8749 30.2022ZM51.4828 28.5038C51.8999 28.5038 52.2754 28.4144 52.6091 28.2357C52.9547 28.0569 53.2229 27.7828 53.4136 27.4133C53.6162 27.0319 53.7175 26.5552 53.7175 25.9831V25.6076L51.9297 25.8937C51.2265 26.001 50.7021 26.1738 50.3565 26.4121C50.0109 26.6505 49.838 26.9425 49.838 27.2881C49.838 27.5504 49.9155 27.7768 50.0704 27.9675C50.2373 28.1463 50.4459 28.2833 50.6962 28.3787C50.9465 28.4621 51.2087 28.5038 51.4828 28.5038ZM58.5734 33.4202C58.478 33.4202 58.3946 33.3844 58.3231 33.3129C58.2516 33.2414 58.2158 33.158 58.2158 33.0626C58.2158 33.015 58.2158 32.9673 58.2158 32.9196C58.2278 32.8839 58.2516 32.8362 58.2874 32.7766L59.6818 29.4692L56.2493 21.3706C56.2016 21.2514 56.1778 21.168 56.1778 21.1203C56.1897 21.0131 56.2314 20.9237 56.3029 20.8522C56.3744 20.7687 56.4638 20.727 56.5711 20.727H58.0192C58.1622 20.727 58.2695 20.7628 58.341 20.8343C58.4125 20.9058 58.4661 20.9833 58.5019 21.0667L60.8796 26.9127L63.3289 21.0667C63.3646 20.9714 63.4183 20.8939 63.4898 20.8343C63.5613 20.7628 63.6685 20.727 63.8116 20.727H65.2418C65.3371 20.727 65.4206 20.7628 65.4921 20.8343C65.5755 20.9058 65.6172 20.9892 65.6172 21.0846C65.6172 21.1561 65.5934 21.2514 65.5457 21.3706L60.4863 33.0805C60.4386 33.1759 60.379 33.2533 60.3075 33.3129C60.236 33.3844 60.1288 33.4202 59.9857 33.4202H58.5734ZM72.8285 30.2022C71.7201 30.2022 70.7904 30.0413 70.0396 29.7195C69.3006 29.3858 68.7345 28.9567 68.3412 28.4323C67.9598 27.896 67.7572 27.3358 67.7334 26.7518C67.7334 26.6445 67.7691 26.5552 67.8406 26.4836C67.9121 26.4121 68.0015 26.3764 68.1088 26.3764H69.6999C69.8548 26.3764 69.9681 26.4121 70.0396 26.4836C70.123 26.5432 70.1945 26.6207 70.2541 26.7161C70.3256 26.9425 70.4627 27.169 70.6653 27.3954C70.8679 27.6099 71.142 27.7887 71.4877 27.9317C71.8452 28.0748 72.2922 28.1463 72.8285 28.1463C73.6866 28.1463 74.3243 28.0033 74.7414 27.7172C75.1705 27.4312 75.385 27.0438 75.385 26.5552C75.385 26.2095 75.2718 25.9354 75.0453 25.7328C74.8189 25.5183 74.4673 25.3276 73.9906 25.1607C73.5257 24.9819 72.906 24.7972 72.1313 24.6065C71.2374 24.392 70.4865 24.1357 69.8787 23.8377C69.2828 23.5279 68.8299 23.1405 68.52 22.6757C68.222 22.2109 68.073 21.6209 68.073 20.9058C68.073 20.2145 68.2578 19.6007 68.6272 19.0644C69.0086 18.5281 69.545 18.105 70.2362 17.7951C70.9394 17.4852 71.7737 17.3303 72.7391 17.3303C73.5138 17.3303 74.1991 17.4375 74.795 17.6521C75.391 17.8547 75.8856 18.1288 76.2789 18.4744C76.6722 18.8081 76.9702 19.1717 77.1728 19.565C77.3873 19.9464 77.5005 20.3218 77.5125 20.6913C77.5125 20.7866 77.4767 20.876 77.4052 20.9594C77.3456 21.0309 77.2562 21.0667 77.137 21.0667H75.4744C75.3791 21.0667 75.2837 21.0429 75.1884 20.9952C75.093 20.9475 75.0155 20.8581 74.9559 20.727C74.8844 20.3576 74.652 20.0417 74.2587 19.7795C73.8654 19.5173 73.3589 19.3862 72.7391 19.3862C72.0955 19.3862 71.5771 19.5054 71.1837 19.7437C70.7904 19.9821 70.5938 20.3516 70.5938 20.8522C70.5938 21.1859 70.6891 21.466 70.8798 21.6924C71.0824 21.907 71.3983 22.0976 71.8273 22.2645C72.2683 22.4314 72.8464 22.6101 73.5615 22.8008C74.5746 23.0273 75.4029 23.2895 76.0465 23.5875C76.6901 23.8854 77.1609 24.2668 77.4588 24.7316C77.7568 25.1845 77.9058 25.7626 77.9058 26.4658C77.9058 27.2524 77.6912 27.9258 77.2622 28.486C76.845 29.0342 76.2551 29.4573 75.4923 29.7553C74.7295 30.0532 73.8416 30.2022 72.8285 30.2022ZM82.6899 30.0234C81.9748 30.0234 81.3729 29.8983 80.8842 29.648C80.3956 29.3977 80.0321 29.0282 79.7937 28.5396C79.5553 28.039 79.4361 27.4193 79.4361 26.6803V22.6221H78.0238C77.9046 22.6221 77.8033 22.5803 77.7199 22.4969C77.6364 22.4135 77.5947 22.3122 77.5947 22.193V21.1561C77.5947 21.0369 77.6364 20.9356 77.7199 20.8522C77.8033 20.7687 77.9046 20.727 78.0238 20.727H79.4361V17.7593C79.4361 17.6401 79.4719 17.5388 79.5434 17.4554C79.6268 17.372 79.7341 17.3303 79.8652 17.3303H81.3133C81.4325 17.3303 81.5338 17.372 81.6172 17.4554C81.7006 17.5388 81.7424 17.6401 81.7424 17.7593V20.727H83.9771C84.0963 20.727 84.1976 20.7687 84.281 20.8522C84.3644 20.9356 84.4061 21.0369 84.4061 21.1561V22.193C84.4061 22.3122 84.3644 22.4135 84.281 22.4969C84.1976 22.5803 84.0963 22.6221 83.9771 22.6221H81.7424V26.5015C81.7424 26.9902 81.8258 27.3716 81.9926 27.6457C82.1714 27.9198 82.4753 28.0569 82.9044 28.0569H84.138C84.2572 28.0569 84.3585 28.0986 84.4419 28.182C84.5253 28.2655 84.567 28.3668 84.567 28.486V29.5944C84.567 29.7136 84.5253 29.8149 84.4419 29.8983C84.3585 29.9817 84.2572 30.0234 84.138 30.0234H82.6899ZM89.0134 30.2022C88.0599 30.2022 87.2554 30.0354 86.5999 29.7016C85.9563 29.3679 85.4617 28.8971 85.1161 28.2893C84.7824 27.6815 84.5917 26.9723 84.544 26.1619C84.5321 25.9473 84.5261 25.6851 84.5261 25.3752C84.5261 25.0654 84.5321 24.8031 84.544 24.5886C84.5917 23.7662 84.7883 23.0571 85.134 22.4612C85.4915 21.8533 85.9921 21.3825 86.6357 21.0488C87.2912 20.7151 88.0838 20.5482 89.0134 20.5482C89.9431 20.5482 90.7297 20.7151 91.3733 21.0488C92.0288 21.3825 92.5294 21.8533 92.875 22.4612C93.2326 23.0571 93.4352 23.7662 93.4828 24.5886C93.4948 24.8031 93.5007 25.0654 93.5007 25.3752C93.5007 25.6851 93.4948 25.9473 93.4828 26.1619C93.4352 26.9723 93.2385 27.6815 92.8929 28.2893C92.5592 28.8971 92.0645 29.3679 91.409 29.7016C90.7654 30.0354 89.9669 30.2022 89.0134 30.2022ZM89.0134 28.4323C89.6451 28.4323 90.1338 28.2357 90.4794 27.8424C90.825 27.4371 91.0157 26.8472 91.0515 26.0725C91.0634 25.8937 91.0694 25.6613 91.0694 25.3752C91.0694 25.0892 91.0634 24.8568 91.0515 24.678C91.0157 23.9152 90.825 23.3312 90.4794 22.926C90.1338 22.5208 89.6451 22.3181 89.0134 22.3181C88.3817 22.3181 87.8931 22.5208 87.5474 22.926C87.2018 23.3312 87.0111 23.9152 86.9754 24.678C86.9634 24.8568 86.9575 25.0892 86.9575 25.3752C86.9575 25.6613 86.9634 25.8937 86.9754 26.0725C87.0111 26.8472 87.2018 27.4371 87.5474 27.8424C87.8931 28.2357 88.3817 28.4323 89.0134 28.4323ZM94.6591 30.0234C94.54 30.0234 94.4387 29.9817 94.3552 29.8983C94.2718 29.8149 94.2301 29.7136 94.2301 29.5944V21.174C94.2301 21.0429 94.2718 20.9356 94.3552 20.8522C94.4387 20.7687 94.54 20.727 94.6591 20.727H96.1072C96.2264 20.727 96.3277 20.7687 96.4112 20.8522C96.5065 20.9356 96.5542 21.0429 96.5542 21.174V21.907C96.8283 21.5256 97.1799 21.2336 97.609 21.0309C98.0499 20.8283 98.5565 20.727 99.1286 20.727H99.8616C99.9927 20.727 100.094 20.7687 100.165 20.8522C100.249 20.9356 100.291 21.0369 100.291 21.1561V22.4433C100.291 22.5625 100.249 22.6638 100.165 22.7472C100.094 22.8306 99.9927 22.8724 99.8616 22.8724H98.4671C97.895 22.8724 97.4481 23.0333 97.1263 23.355C96.8164 23.6768 96.6614 24.1178 96.6614 24.678V29.5944C96.6614 29.7136 96.6197 29.8149 96.5363 29.8983C96.4529 29.9817 96.3456 30.0234 96.2145 30.0234H94.6591ZM104.316 30.2022C102.993 30.2022 101.944 29.8208 101.169 29.058C100.395 28.2953 99.9776 27.2107 99.918 25.8043C99.9061 25.6851 99.9001 25.5361 99.9001 25.3574C99.9001 25.1667 99.9061 25.0177 99.918 24.9104C99.9657 24.0165 100.168 23.2418 100.526 22.5863C100.895 21.9308 101.402 21.4302 102.045 21.0846C102.689 20.727 103.446 20.5482 104.316 20.5482C105.281 20.5482 106.092 20.7509 106.747 21.1561C107.403 21.5494 107.897 22.1036 108.231 22.8187C108.565 23.5219 108.732 24.3383 108.732 25.268V25.6434C108.732 25.7626 108.69 25.8639 108.607 25.9473C108.523 26.0307 108.416 26.0725 108.285 26.0725H102.349C102.349 26.0725 102.349 26.0903 102.349 26.1261C102.349 26.1619 102.349 26.1916 102.349 26.2155C102.361 26.6326 102.439 27.02 102.582 27.3775C102.737 27.7232 102.957 28.0033 103.243 28.2178C103.541 28.4323 103.893 28.5396 104.298 28.5396C104.632 28.5396 104.912 28.4919 105.138 28.3966C105.365 28.2893 105.549 28.1701 105.692 28.039C105.836 27.9079 105.937 27.8006 105.996 27.7172C106.104 27.5742 106.187 27.4908 106.247 27.4669C106.318 27.4312 106.42 27.4133 106.551 27.4133H108.088C108.207 27.4133 108.303 27.449 108.374 27.5206C108.458 27.5921 108.493 27.6815 108.481 27.7887C108.469 27.9794 108.368 28.2118 108.177 28.486C107.999 28.7601 107.737 29.0282 107.391 29.2905C107.045 29.5527 106.61 29.7731 106.086 29.9519C105.573 30.1188 104.983 30.2022 104.316 30.2022ZM102.349 24.5707H106.3V24.5171C106.3 24.0523 106.223 23.6471 106.068 23.3014C105.913 22.9558 105.687 22.6817 105.389 22.479C105.091 22.2764 104.733 22.1751 104.316 22.1751C103.899 22.1751 103.541 22.2764 103.243 22.479C102.945 22.6817 102.719 22.9558 102.564 23.3014C102.421 23.6471 102.349 24.0523 102.349 24.5171V24.5707Z" fill="black"/>
</svg>
