<svg width="115" height="40" viewBox="0 0 115 40" fill="none" xmlns="http://www.w3.org/2000/svg">
<rect x="0.348837" y="0.348837" width="114.302" height="39.3023" rx="6.16279" fill="white"/>
<rect x="0.348837" y="0.348837" width="114.302" height="39.3023" rx="6.16279" stroke="black" stroke-width="0.697674"/>
<path d="M24.8869 16.6343C24.7626 16.7295 22.5685 17.9506 22.5685 20.6658C22.5685 23.8064 25.3604 24.9174 25.444 24.9449C25.4311 25.0127 25.0005 26.4665 23.9719 27.9479C23.0549 29.2516 22.0971 30.5531 20.64 30.5531C19.1829 30.5531 18.808 29.7172 17.1259 29.7172C15.4867 29.7172 14.9039 30.5806 13.5711 30.5806C12.2383 30.5806 11.3084 29.3743 10.2392 27.8929C9.00066 26.1533 8 23.4509 8 20.8859C8 16.7719 10.7084 14.59 13.374 14.59C14.7903 14.59 15.971 15.5085 16.8602 15.5085C17.7066 15.5085 19.0265 14.535 20.6378 14.535C21.2485 14.535 23.4427 14.59 24.8869 16.6343ZM19.8729 12.7933C20.5393 12.0124 21.0107 10.9288 21.0107 9.84529C21.0107 9.69504 20.9978 9.54267 20.97 9.41992C19.8857 9.46013 18.5958 10.1331 17.818 11.0241C17.2073 11.7097 16.6374 12.7933 16.6374 13.8916C16.6374 14.0567 16.6652 14.2218 16.6781 14.2747C16.7466 14.2874 16.8581 14.3022 16.9695 14.3022C17.9423 14.3022 19.1658 13.6588 19.8729 12.7933Z" fill="black"/>
<path d="M32.1182 13.8145C32.062 13.8145 32.0142 13.7948 31.9748 13.7554C31.9354 13.716 31.9158 13.6682 31.9158 13.612V8.12072C31.9158 8.05886 31.9354 8.00825 31.9748 7.96889C32.0142 7.92953 32.062 7.90984 32.1182 7.90984H34.1764C34.7443 7.90984 35.2111 7.99701 35.5766 8.17133C35.9478 8.34566 36.2261 8.60434 36.4117 8.94737C36.6029 9.2904 36.7013 9.70934 36.7069 10.2042C36.7182 10.4516 36.7238 10.671 36.7238 10.8621C36.7238 11.0533 36.7182 11.2698 36.7069 11.5117C36.6957 12.0346 36.6001 12.4676 36.4201 12.8107C36.2402 13.1481 35.9674 13.4011 35.6019 13.5698C35.242 13.7329 34.7809 13.8145 34.2186 13.8145H32.1182ZM33.0882 12.8444H34.1764C34.4913 12.8444 34.7472 12.7994 34.944 12.7094C35.1408 12.6195 35.2842 12.4761 35.3742 12.2793C35.4698 12.0768 35.5204 11.8125 35.526 11.4863C35.5316 11.3176 35.5344 11.1714 35.5344 11.0477C35.5401 10.9184 35.5401 10.7919 35.5344 10.6681C35.5344 10.5388 35.5316 10.3926 35.526 10.2295C35.5148 9.76839 35.3995 9.42817 35.1802 9.20886C34.9608 8.98954 34.6122 8.87989 34.1342 8.87989H33.0882V12.8444ZM39.6856 13.8988C39.2357 13.8988 38.8561 13.8201 38.5468 13.6626C38.2432 13.5052 38.0098 13.283 37.8467 12.9962C37.6893 12.7094 37.5993 12.3749 37.5768 11.9925C37.5712 11.8912 37.5684 11.7675 37.5684 11.6213C37.5684 11.4751 37.5712 11.3514 37.5768 11.2502C37.5993 10.8621 37.6921 10.5276 37.8552 10.2464C38.0239 9.95959 38.26 9.73746 38.5637 9.58C38.873 9.42255 39.247 9.34382 39.6856 9.34382C40.1242 9.34382 40.4954 9.42255 40.799 9.58C41.1083 9.73746 41.3445 9.95959 41.5076 10.2464C41.6763 10.5276 41.7719 10.8621 41.7944 11.2502C41.8 11.3514 41.8028 11.4751 41.8028 11.6213C41.8028 11.7675 41.8 11.8912 41.7944 11.9925C41.7719 12.3749 41.6791 12.7094 41.516 12.9962C41.3586 13.283 41.1252 13.5052 40.8159 13.6626C40.5122 13.8201 40.1355 13.8988 39.6856 13.8988ZM39.6856 13.0637C39.9836 13.0637 40.2142 12.9709 40.3773 12.7854C40.5403 12.5942 40.6303 12.3158 40.6472 11.9503C40.6528 11.8659 40.6556 11.7563 40.6556 11.6213C40.6556 11.4863 40.6528 11.3767 40.6472 11.2923C40.6303 10.9324 40.5403 10.6569 40.3773 10.4657C40.2142 10.2745 39.9836 10.1789 39.6856 10.1789C39.3875 10.1789 39.157 10.2745 38.9939 10.4657C38.8308 10.6569 38.7408 10.9324 38.724 11.2923C38.7184 11.3767 38.7155 11.4863 38.7155 11.6213C38.7155 11.7563 38.7184 11.8659 38.724 11.9503C38.7408 12.3158 38.8308 12.5942 38.9939 12.7854C39.157 12.9709 39.3875 13.0637 39.6856 13.0637ZM43.8116 13.8145C43.7329 13.8145 43.6739 13.7948 43.6345 13.7554C43.5951 13.716 43.5614 13.6654 43.5333 13.6036L42.327 9.68966C42.3214 9.66154 42.3186 9.63624 42.3186 9.61375C42.3186 9.56313 42.3355 9.52096 42.3692 9.48722C42.4086 9.44785 42.4508 9.42817 42.4957 9.42817H43.1199C43.1874 9.42817 43.2409 9.44785 43.2802 9.48722C43.3196 9.52096 43.3421 9.5547 43.3477 9.58844L44.1743 12.3805L45.0516 9.61375C45.0628 9.57438 45.0882 9.53502 45.1275 9.49565C45.1669 9.45067 45.2259 9.42817 45.3047 9.42817H45.7264C45.8051 9.42817 45.8642 9.45067 45.9035 9.49565C45.9429 9.53502 45.9682 9.57438 45.9795 9.61375L46.8567 12.3805L47.6834 9.58844C47.689 9.5547 47.7087 9.52096 47.7424 9.48722C47.7818 9.44785 47.8352 9.42817 47.9027 9.42817H48.5269C48.5775 9.42817 48.6197 9.44785 48.6534 9.48722C48.6928 9.52096 48.7125 9.56313 48.7125 9.61375C48.7125 9.63624 48.7068 9.66154 48.6956 9.68966L47.4894 13.6036C47.4725 13.6654 47.4416 13.716 47.3966 13.7554C47.3572 13.7948 47.2982 13.8145 47.2194 13.8145H46.6711C46.5924 13.8145 46.5306 13.7948 46.4856 13.7554C46.4406 13.716 46.4097 13.6654 46.3928 13.6036L45.5155 10.9381L44.6383 13.6036C44.6158 13.6654 44.582 13.716 44.5371 13.7554C44.4977 13.7948 44.4358 13.8145 44.3515 13.8145H43.8116ZM49.7357 13.8145C49.6795 13.8145 49.6317 13.7948 49.5923 13.7554C49.553 13.716 49.5333 13.6682 49.5333 13.612V9.63062C49.5333 9.57438 49.553 9.52658 49.5923 9.48722C49.6317 9.44785 49.6795 9.42817 49.7357 9.42817H50.4274C50.4837 9.42817 50.5315 9.44785 50.5708 9.48722C50.6102 9.52658 50.6299 9.57438 50.6299 9.63062V9.97646C50.7761 9.79651 50.9617 9.64749 51.1866 9.52939C51.4172 9.40568 51.7011 9.34382 52.0385 9.34382C52.3816 9.34382 52.6796 9.42255 52.9327 9.58C53.1857 9.73184 53.3797 9.94834 53.5147 10.2295C53.6553 10.5107 53.7256 10.8481 53.7256 11.2417V13.612C53.7256 13.6682 53.7059 13.716 53.6665 13.7554C53.6272 13.7948 53.5794 13.8145 53.5231 13.8145H52.7808C52.7246 13.8145 52.6768 13.7948 52.6374 13.7554C52.5981 13.716 52.5784 13.6682 52.5784 13.612V11.2923C52.5784 10.9662 52.4969 10.7103 52.3338 10.5247C52.1763 10.3392 51.9458 10.2464 51.6421 10.2464C51.3497 10.2464 51.1163 10.3392 50.942 10.5247C50.7676 10.7103 50.6805 10.9662 50.6805 11.2923V13.612C50.6805 13.6682 50.6608 13.716 50.6214 13.7554C50.5821 13.7948 50.5343 13.8145 50.478 13.8145H49.7357ZM55.0079 13.8145C54.9517 13.8145 54.9039 13.7948 54.8645 13.7554C54.8252 13.716 54.8055 13.6682 54.8055 13.612V8.02794C54.8055 7.9717 54.8252 7.9239 54.8645 7.88454C54.9039 7.84517 54.9517 7.82549 55.0079 7.82549H55.708C55.7643 7.82549 55.8121 7.84517 55.8514 7.88454C55.8908 7.9239 55.9105 7.9717 55.9105 8.02794V13.612C55.9105 13.6682 55.8908 13.716 55.8514 13.7554C55.8121 13.7948 55.7643 13.8145 55.708 13.8145H55.0079ZM58.9695 13.8988C58.5196 13.8988 58.14 13.8201 57.8307 13.6626C57.5271 13.5052 57.2937 13.283 57.1306 12.9962C56.9732 12.7094 56.8832 12.3749 56.8607 11.9925C56.8551 11.8912 56.8522 11.7675 56.8522 11.6213C56.8522 11.4751 56.8551 11.3514 56.8607 11.2502C56.8832 10.8621 56.976 10.5276 57.139 10.2464C57.3077 9.95959 57.5439 9.73746 57.8476 9.58C58.1569 9.42255 58.5308 9.34382 58.9695 9.34382C59.4081 9.34382 59.7792 9.42255 60.0829 9.58C60.3922 9.73746 60.6284 9.95959 60.7915 10.2464C60.9602 10.5276 61.0558 10.8621 61.0783 11.2502C61.0839 11.3514 61.0867 11.4751 61.0867 11.6213C61.0867 11.7675 61.0839 11.8912 61.0783 11.9925C61.0558 12.3749 60.963 12.7094 60.7999 12.9962C60.6424 13.283 60.4091 13.5052 60.0998 13.6626C59.7961 13.8201 59.4193 13.8988 58.9695 13.8988ZM58.9695 13.0637C59.2675 13.0637 59.4981 12.9709 59.6612 12.7854C59.8242 12.5942 59.9142 12.3158 59.9311 11.9503C59.9367 11.8659 59.9395 11.7563 59.9395 11.6213C59.9395 11.4863 59.9367 11.3767 59.9311 11.2923C59.9142 10.9324 59.8242 10.6569 59.6612 10.4657C59.4981 10.2745 59.2675 10.1789 58.9695 10.1789C58.6714 10.1789 58.4409 10.2745 58.2778 10.4657C58.1147 10.6569 58.0247 10.9324 58.0079 11.2923C58.0022 11.3767 57.9994 11.4863 57.9994 11.6213C57.9994 11.7563 58.0022 11.8659 58.0079 11.9503C58.0247 12.3158 58.1147 12.5942 58.2778 12.7854C58.4409 12.9709 58.6714 13.0637 58.9695 13.0637ZM63.295 13.8988C63.0026 13.8988 62.7383 13.8426 62.5021 13.7301C62.2659 13.612 62.0775 13.4574 61.9369 13.2662C61.802 13.0693 61.7345 12.85 61.7345 12.6082C61.7345 12.2146 61.8919 11.9025 62.2069 11.6719C62.5274 11.4357 62.9492 11.2783 63.4721 11.1996L64.6278 11.0309V10.8537C64.6278 10.6175 64.5687 10.4348 64.4506 10.3054C64.3325 10.1761 64.1301 10.1114 63.8433 10.1114C63.6408 10.1114 63.4749 10.1536 63.3456 10.2379C63.2219 10.3167 63.1291 10.4235 63.0672 10.5585C63.0223 10.6316 62.9576 10.6681 62.8732 10.6681H62.2069C62.145 10.6681 62.0972 10.6513 62.0635 10.6175C62.0353 10.5838 62.0213 10.5388 62.0213 10.4826C62.0269 10.3926 62.0635 10.2829 62.1309 10.1536C62.1984 10.0243 62.3053 9.90054 62.4515 9.78245C62.5977 9.65873 62.7861 9.5547 63.0166 9.47035C63.2472 9.386 63.5256 9.34382 63.8517 9.34382C64.206 9.34382 64.504 9.38881 64.7458 9.47878C64.9933 9.56313 65.1901 9.67841 65.3363 9.82462C65.4825 9.97083 65.5894 10.1423 65.6568 10.3392C65.7243 10.536 65.7581 10.7441 65.7581 10.9634V13.612C65.7581 13.6682 65.7384 13.716 65.699 13.7554C65.6597 13.7948 65.6119 13.8145 65.5556 13.8145H64.8724C64.8105 13.8145 64.7599 13.7948 64.7205 13.7554C64.6868 13.716 64.6699 13.6682 64.6699 13.612V13.283C64.5968 13.3899 64.4984 13.4911 64.3747 13.5867C64.251 13.6767 64.0991 13.7526 63.9192 13.8145C63.7449 13.8707 63.5368 13.8988 63.295 13.8988ZM63.5818 13.0975C63.7786 13.0975 63.9557 13.0553 64.1132 12.9709C64.2763 12.8866 64.4028 12.7572 64.4928 12.5829C64.5884 12.403 64.6362 12.178 64.6362 11.9081V11.731L63.7927 11.8659C63.4609 11.9165 63.2135 11.9981 63.0504 12.1106C62.8873 12.223 62.8058 12.3608 62.8058 12.5239C62.8058 12.6476 62.8423 12.7544 62.9154 12.8444C62.9941 12.9288 63.0926 12.9934 63.2106 13.0384C63.3287 13.0778 63.4525 13.0975 63.5818 13.0975ZM68.4682 13.8988C68.1758 13.8988 67.9171 13.851 67.6921 13.7554C67.4728 13.6542 67.2901 13.5136 67.1439 13.3336C66.9977 13.1537 66.8852 12.9428 66.8065 12.701C66.7277 12.4536 66.6827 12.1837 66.6715 11.8912C66.6659 11.79 66.6631 11.7 66.6631 11.6213C66.6631 11.537 66.6659 11.4442 66.6715 11.343C66.6827 11.0618 66.7249 10.8003 66.798 10.5585C66.8768 10.3167 66.9892 10.1058 67.1354 9.92585C67.2873 9.74027 67.4728 9.59688 67.6921 9.49565C67.9171 9.39443 68.1758 9.34382 68.4682 9.34382C68.7718 9.34382 69.0277 9.39724 69.2358 9.50409C69.4495 9.60531 69.6266 9.73746 69.7672 9.90054V8.02794C69.7672 7.9717 69.7841 7.9239 69.8178 7.88454C69.8572 7.84517 69.9078 7.82549 69.9696 7.82549H70.6866C70.7429 7.82549 70.7907 7.84517 70.83 7.88454C70.8694 7.9239 70.8891 7.9717 70.8891 8.02794V13.612C70.8891 13.6682 70.8694 13.716 70.83 13.7554C70.7907 13.7948 70.7429 13.8145 70.6866 13.8145H70.0203C69.9584 13.8145 69.9078 13.7948 69.8684 13.7554C69.8347 13.716 69.8178 13.6682 69.8178 13.612V13.2999C69.6772 13.4742 69.4973 13.6176 69.278 13.7301C69.0643 13.8426 68.7943 13.8988 68.4682 13.8988ZM68.7803 12.9962C69.0165 12.9962 69.2049 12.9428 69.3454 12.836C69.486 12.7291 69.5901 12.5942 69.6575 12.4311C69.725 12.2624 69.7616 12.0909 69.7672 11.9165C69.7728 11.8153 69.7756 11.7085 69.7756 11.596C69.7756 11.4779 69.7728 11.3683 69.7672 11.267C69.7616 11.0983 69.7222 10.9381 69.6491 10.7862C69.576 10.6288 69.4692 10.4994 69.3286 10.3982C69.188 10.297 69.0052 10.2464 68.7803 10.2464C68.5441 10.2464 68.3557 10.2998 68.2151 10.4067C68.0802 10.5079 67.9818 10.6428 67.9199 10.8115C67.858 10.9802 67.8215 11.1658 67.8102 11.3683C67.8046 11.537 67.8046 11.7057 67.8102 11.8744C67.8215 12.0768 67.858 12.2624 67.9199 12.4311C67.9818 12.5998 68.0802 12.7376 68.2151 12.8444C68.3557 12.9456 68.5441 12.9962 68.7803 12.9962ZM75.881 13.8988C75.4311 13.8988 75.0515 13.8201 74.7422 13.6626C74.4386 13.5052 74.2052 13.283 74.0421 12.9962C73.8847 12.7094 73.7947 12.3749 73.7722 11.9925C73.7666 11.8912 73.7637 11.7675 73.7637 11.6213C73.7637 11.4751 73.7666 11.3514 73.7722 11.2502C73.7947 10.8621 73.8875 10.5276 74.0505 10.2464C74.2192 9.95959 74.4554 9.73746 74.7591 9.58C75.0684 9.42255 75.4423 9.34382 75.881 9.34382C76.3196 9.34382 76.6907 9.42255 76.9944 9.58C77.3037 9.73746 77.5399 9.95959 77.703 10.2464C77.8717 10.5276 77.9673 10.8621 77.9898 11.2502C77.9954 11.3514 77.9982 11.4751 77.9982 11.6213C77.9982 11.7675 77.9954 11.8912 77.9898 11.9925C77.9673 12.3749 77.8745 12.7094 77.7114 12.9962C77.5539 13.283 77.3206 13.5052 77.0113 13.6626C76.7076 13.8201 76.3308 13.8988 75.881 13.8988ZM75.881 13.0637C76.179 13.0637 76.4096 12.9709 76.5727 12.7854C76.7357 12.5942 76.8257 12.3158 76.8426 11.9503C76.8482 11.8659 76.851 11.7563 76.851 11.6213C76.851 11.4863 76.8482 11.3767 76.8426 11.2923C76.8257 10.9324 76.7357 10.6569 76.5727 10.4657C76.4096 10.2745 76.179 10.1789 75.881 10.1789C75.5829 10.1789 75.3524 10.2745 75.1893 10.4657C75.0262 10.6569 74.9362 10.9324 74.9194 11.2923C74.9137 11.3767 74.9109 11.4863 74.9109 11.6213C74.9109 11.7563 74.9137 11.8659 74.9194 11.9503C74.9362 12.3158 75.0262 12.5942 75.1893 12.7854C75.3524 12.9709 75.5829 13.0637 75.881 13.0637ZM79.1352 13.8145C79.079 13.8145 79.0312 13.7948 78.9918 13.7554C78.9525 13.716 78.9328 13.6682 78.9328 13.612V9.63062C78.9328 9.57438 78.9525 9.52658 78.9918 9.48722C79.0312 9.44785 79.079 9.42817 79.1352 9.42817H79.8269C79.8831 9.42817 79.9309 9.44785 79.9703 9.48722C80.0097 9.52658 80.0294 9.57438 80.0294 9.63062V9.97646C80.1756 9.79651 80.3611 9.64749 80.5861 9.52939C80.8166 9.40568 81.1006 9.34382 81.438 9.34382C81.7811 9.34382 82.0791 9.42255 82.3322 9.58C82.5852 9.73184 82.7792 9.94834 82.9142 10.2295C83.0548 10.5107 83.1251 10.8481 83.1251 11.2417V13.612C83.1251 13.6682 83.1054 13.716 83.066 13.7554C83.0266 13.7948 82.9788 13.8145 82.9226 13.8145H82.1803C82.1241 13.8145 82.0763 13.7948 82.0369 13.7554C81.9976 13.716 81.9779 13.6682 81.9779 13.612V11.2923C81.9779 10.9662 81.8963 10.7103 81.7333 10.5247C81.5758 10.3392 81.3452 10.2464 81.0416 10.2464C80.7492 10.2464 80.5158 10.3392 80.3415 10.5247C80.1671 10.7103 80.08 10.9662 80.08 11.2923V13.612C80.08 13.6682 80.0603 13.716 80.0209 13.7554C79.9816 13.7948 79.9338 13.8145 79.8775 13.8145H79.1352ZM87.9334 13.8145C87.596 13.8145 87.312 13.7554 87.0814 13.6373C86.8508 13.5192 86.6793 13.3449 86.5669 13.1143C86.4544 12.8782 86.3982 12.5857 86.3982 12.2371V10.3223H85.7318C85.6756 10.3223 85.6278 10.3026 85.5884 10.2633C85.549 10.2239 85.5293 10.1761 85.5293 10.1199V9.63062C85.5293 9.57438 85.549 9.52658 85.5884 9.48722C85.6278 9.44785 85.6756 9.42817 85.7318 9.42817H86.3982V8.02794C86.3982 7.9717 86.415 7.9239 86.4488 7.88454C86.4881 7.84517 86.5387 7.82549 86.6006 7.82549H87.2839C87.3401 7.82549 87.3879 7.84517 87.4273 7.88454C87.4666 7.9239 87.4863 7.9717 87.4863 8.02794V9.42817H88.5407C88.5969 9.42817 88.6447 9.44785 88.6841 9.48722C88.7235 9.52658 88.7431 9.57438 88.7431 9.63062V10.1199C88.7431 10.1761 88.7235 10.2239 88.6841 10.2633C88.6447 10.3026 88.5969 10.3223 88.5407 10.3223H87.4863V12.1527C87.4863 12.3833 87.5257 12.5632 87.6044 12.6926C87.6887 12.8219 87.8321 12.8866 88.0346 12.8866H88.6166C88.6728 12.8866 88.7206 12.9063 88.76 12.9456C88.7994 12.985 88.8191 13.0328 88.8191 13.089V13.612C88.8191 13.6682 88.7994 13.716 88.76 13.7554C88.7206 13.7948 88.6728 13.8145 88.6166 13.8145H87.9334ZM89.7782 13.8145C89.722 13.8145 89.6742 13.7948 89.6348 13.7554C89.5955 13.716 89.5758 13.6682 89.5758 13.612V8.02794C89.5758 7.9717 89.5955 7.9239 89.6348 7.88454C89.6742 7.84517 89.722 7.82549 89.7782 7.82549H90.529C90.5908 7.82549 90.6386 7.84517 90.6723 7.88454C90.7117 7.9239 90.7314 7.9717 90.7314 8.02794V9.95115C90.8832 9.7712 91.0688 9.62499 91.2881 9.51252C91.5074 9.40005 91.7774 9.34382 92.0979 9.34382C92.4409 9.34382 92.739 9.42255 92.992 9.58C93.2507 9.73184 93.4503 9.94834 93.5909 10.2295C93.7315 10.5107 93.8018 10.8481 93.8018 11.2417V13.612C93.8018 13.6682 93.7821 13.716 93.7427 13.7554C93.7034 13.7948 93.6556 13.8145 93.5993 13.8145H92.8402C92.784 13.8145 92.7362 13.7948 92.6968 13.7554C92.6574 13.716 92.6377 13.6682 92.6377 13.612V11.2923C92.6377 10.9662 92.5562 10.7103 92.3931 10.5247C92.2357 10.3392 92.0051 10.2464 91.7014 10.2464C91.409 10.2464 91.1728 10.3392 90.9929 10.5247C90.8186 10.7103 90.7314 10.9662 90.7314 11.2923V13.612C90.7314 13.6682 90.7117 13.716 90.6723 13.7554C90.6386 13.7948 90.5908 13.8145 90.529 13.8145H89.7782ZM96.7617 13.8988C96.1375 13.8988 95.6427 13.7189 95.2772 13.359C94.9116 12.9991 94.7148 12.4873 94.6867 11.8238C94.6811 11.7675 94.6783 11.6972 94.6783 11.6129C94.6783 11.5229 94.6811 11.4526 94.6867 11.402C94.7092 10.9802 94.8048 10.6147 94.9735 10.3054C95.1478 9.99614 95.3868 9.75995 95.6905 9.59688C95.9941 9.42817 96.3512 9.34382 96.7617 9.34382C97.2172 9.34382 97.5996 9.43942 97.9089 9.63062C98.2182 9.81619 98.4516 10.0777 98.609 10.4151C98.7665 10.7469 98.8452 11.1321 98.8452 11.5707V11.7478C98.8452 11.8041 98.8255 11.8519 98.7862 11.8912C98.7468 11.9306 98.6962 11.9503 98.6343 11.9503H95.8339C95.8339 11.9503 95.8339 11.9587 95.8339 11.9756C95.8339 11.9925 95.8339 12.0065 95.8339 12.0178C95.8395 12.2146 95.876 12.3973 95.9435 12.5661C96.0166 12.7291 96.1207 12.8613 96.2556 12.9625C96.3962 13.0637 96.5621 13.1143 96.7533 13.1143C96.9108 13.1143 97.0429 13.0918 97.1498 13.0469C97.2566 12.9962 97.3438 12.94 97.4112 12.8782C97.4787 12.8163 97.5265 12.7657 97.5546 12.7263C97.6053 12.6588 97.6446 12.6195 97.6727 12.6082C97.7065 12.5914 97.7543 12.5829 97.8161 12.5829H98.5416C98.5978 12.5829 98.6428 12.5998 98.6765 12.6335C98.7159 12.6673 98.7328 12.7094 98.7271 12.7601C98.7215 12.85 98.6737 12.9597 98.5837 13.089C98.4994 13.2184 98.3757 13.3449 98.2126 13.4686C98.0495 13.5923 97.8443 13.6964 97.5968 13.7807C97.355 13.8594 97.0767 13.8988 96.7617 13.8988ZM95.8339 11.2417H97.698V11.2164C97.698 10.9971 97.6615 10.8059 97.5884 10.6428C97.5153 10.4798 97.4084 10.3504 97.2678 10.2548C97.1273 10.1592 96.9586 10.1114 96.7617 10.1114C96.5649 10.1114 96.3962 10.1592 96.2556 10.2548C96.115 10.3504 96.0082 10.4798 95.9351 10.6428C95.8676 10.8059 95.8339 10.9971 95.8339 11.2164V11.2417Z" fill="black"/>
<path d="M31.8835 30.0234C31.7882 30.0234 31.6988 29.9877 31.6154 29.9162C31.5439 29.8447 31.5081 29.7553 31.5081 29.648C31.5081 29.6003 31.52 29.5467 31.5439 29.4871L35.8524 17.956C35.8881 17.8368 35.9537 17.7355 36.049 17.6521C36.1563 17.5567 36.2993 17.509 36.4781 17.509H38.4268C38.6056 17.509 38.7426 17.5567 38.838 17.6521C38.9333 17.7355 39.0048 17.8368 39.0525 17.956L43.361 29.4871C43.3729 29.5467 43.3789 29.6003 43.3789 29.648C43.3789 29.7553 43.3431 29.8447 43.2716 29.9162C43.2001 29.9877 43.1167 30.0234 43.0214 30.0234H41.466C41.2991 30.0234 41.174 29.9877 41.0906 29.9162C41.019 29.8327 40.9714 29.7553 40.9475 29.6838L40.1073 27.5027H34.7976L33.9573 29.6838C33.9335 29.7553 33.8799 29.8327 33.7964 29.9162C33.7249 29.9877 33.6058 30.0234 33.4389 30.0234H31.8835ZM35.4233 25.4467H39.4816L37.4435 19.9225L35.4233 25.4467ZM44.0289 33.4202C43.9097 33.4202 43.8084 33.3785 43.725 33.2951C43.6416 33.2116 43.5999 33.1103 43.5999 32.9911V21.1561C43.5999 21.0369 43.6416 20.9356 43.725 20.8522C43.8084 20.7687 43.9097 20.727 44.0289 20.727H45.4413C45.5724 20.727 45.6737 20.7687 45.7452 20.8522C45.8286 20.9356 45.8703 21.0369 45.8703 21.1561V21.8712C46.1564 21.4898 46.5318 21.174 46.9966 20.9237C47.4614 20.6734 48.0395 20.5482 48.7308 20.5482C49.3624 20.5482 49.9107 20.6496 50.3755 20.8522C50.8403 21.0548 51.2277 21.3468 51.5376 21.7282C51.8474 22.0976 52.0858 22.5386 52.2527 23.0511C52.4195 23.5636 52.5149 24.1298 52.5387 24.7495C52.5506 24.9521 52.5566 25.1607 52.5566 25.3752C52.5566 25.5898 52.5506 25.8043 52.5387 26.0188C52.5268 26.6148 52.4374 27.169 52.2706 27.6815C52.1037 28.182 51.8594 28.623 51.5376 29.0044C51.2277 29.3739 50.8403 29.6659 50.3755 29.8804C49.9107 30.0949 49.3624 30.2022 48.7308 30.2022C48.0872 30.2022 47.5389 30.089 47.086 29.8625C46.6331 29.6242 46.2636 29.3143 45.9776 28.9329V32.9911C45.9776 33.1103 45.9359 33.2116 45.8525 33.2951C45.7809 33.3785 45.6796 33.4202 45.5485 33.4202H44.0289ZM48.0693 28.2893C48.5818 28.2893 48.9811 28.182 49.2671 27.9675C49.5531 27.741 49.7558 27.449 49.8749 27.0915C50.006 26.7339 50.0835 26.3406 50.1074 25.9116C50.1312 25.554 50.1312 25.1965 50.1074 24.8389C50.0835 24.4098 50.006 24.0165 49.8749 23.659C49.7558 23.3014 49.5531 23.0154 49.2671 22.8008C48.9811 22.5744 48.5818 22.4612 48.0693 22.4612C47.5806 22.4612 47.1814 22.5744 46.8715 22.8008C46.5735 23.0273 46.353 23.3193 46.21 23.6768C46.0789 24.0225 46.0014 24.38 45.9776 24.7495C45.9657 24.964 45.9597 25.1905 45.9597 25.4289C45.9597 25.6672 45.9657 25.8996 45.9776 26.1261C45.9895 26.4836 46.0729 26.8293 46.2279 27.163C46.3828 27.4848 46.6093 27.753 46.9072 27.9675C47.2052 28.182 47.5926 28.2893 48.0693 28.2893ZM53.759 33.4202C53.6398 33.4202 53.5385 33.3785 53.4551 33.2951C53.3717 33.2116 53.3299 33.1103 53.3299 32.9911V21.1561C53.3299 21.0369 53.3717 20.9356 53.4551 20.8522C53.5385 20.7687 53.6398 20.727 53.759 20.727H55.1714C55.3025 20.727 55.4038 20.7687 55.4753 20.8522C55.5587 20.9356 55.6004 21.0369 55.6004 21.1561V21.8712C55.8865 21.4898 56.2619 21.174 56.7267 20.9237C57.1915 20.6734 57.7696 20.5482 58.4609 20.5482C59.0925 20.5482 59.6408 20.6496 60.1056 20.8522C60.5704 21.0548 60.9578 21.3468 61.2677 21.7282C61.5775 22.0976 61.8159 22.5386 61.9828 23.0511C62.1496 23.5636 62.245 24.1298 62.2688 24.7495C62.2807 24.9521 62.2867 25.1607 62.2867 25.3752C62.2867 25.5898 62.2807 25.8043 62.2688 26.0188C62.2569 26.6148 62.1675 27.169 62.0006 27.6815C61.8338 28.182 61.5895 28.623 61.2677 29.0044C60.9578 29.3739 60.5704 29.6659 60.1056 29.8804C59.6408 30.0949 59.0925 30.2022 58.4609 30.2022C57.8173 30.2022 57.269 30.089 56.8161 29.8625C56.3632 29.6242 55.9937 29.3143 55.7077 28.9329V32.9911C55.7077 33.1103 55.666 33.2116 55.5825 33.2951C55.511 33.3785 55.4097 33.4202 55.2786 33.4202H53.759ZM57.7994 28.2893C58.3119 28.2893 58.7111 28.182 58.9972 27.9675C59.2832 27.741 59.4858 27.449 59.605 27.0915C59.7361 26.7339 59.8136 26.3406 59.8374 25.9116C59.8613 25.554 59.8613 25.1965 59.8374 24.8389C59.8136 24.4098 59.7361 24.0165 59.605 23.659C59.4858 23.3014 59.2832 23.0154 58.9972 22.8008C58.7111 22.5744 58.3119 22.4612 57.7994 22.4612C57.3107 22.4612 56.9115 22.5744 56.6016 22.8008C56.3036 23.0273 56.0831 23.3193 55.9401 23.6768C55.809 24.0225 55.7315 24.38 55.7077 24.7495C55.6958 24.964 55.6898 25.1905 55.6898 25.4289C55.6898 25.6672 55.6958 25.8996 55.7077 26.1261C55.7196 26.4836 55.803 26.8293 55.958 27.163C56.1129 27.4848 56.3394 27.753 56.6373 27.9675C56.9353 28.182 57.3226 28.2893 57.7994 28.2893ZM70.4349 30.2022C69.3265 30.2022 68.3968 30.0413 67.6459 29.7195C66.907 29.3858 66.3409 28.9567 65.9476 28.4323C65.5662 27.896 65.3636 27.3358 65.3397 26.7518C65.3397 26.6445 65.3755 26.5552 65.447 26.4836C65.5185 26.4121 65.6079 26.3764 65.7152 26.3764H67.3063C67.4612 26.3764 67.5744 26.4121 67.6459 26.4836C67.7294 26.5432 67.8009 26.6207 67.8605 26.7161C67.932 26.9425 68.0691 27.169 68.2717 27.3954C68.4743 27.6099 68.7484 27.7887 69.094 27.9317C69.4516 28.0748 69.8985 28.1463 70.4349 28.1463C71.293 28.1463 71.9306 28.0033 72.3478 27.7172C72.7769 27.4312 72.9914 27.0438 72.9914 26.5552C72.9914 26.2095 72.8782 25.9354 72.6517 25.7328C72.4253 25.5183 72.0737 25.3276 71.5969 25.1607C71.1321 24.9819 70.5123 24.7972 69.7376 24.6065C68.8438 24.392 68.0929 24.1357 67.485 23.8377C66.8891 23.5279 66.4362 23.1405 66.1263 22.6757C65.8284 22.2109 65.6794 21.6209 65.6794 20.9058C65.6794 20.2145 65.8641 19.6007 66.2336 19.0644C66.615 18.5281 67.1513 18.105 67.8426 17.7951C68.5458 17.4852 69.3801 17.3303 70.3455 17.3303C71.1202 17.3303 71.8055 17.4375 72.4014 17.6521C72.9973 17.8547 73.492 18.1288 73.8853 18.4744C74.2786 18.8081 74.5765 19.1717 74.7792 19.565C74.9937 19.9464 75.1069 20.3218 75.1188 20.6913C75.1188 20.7866 75.0831 20.876 75.0116 20.9594C74.952 21.0309 74.8626 21.0667 74.7434 21.0667H73.0808C72.9854 21.0667 72.8901 21.0429 72.7947 20.9952C72.6994 20.9475 72.6219 20.8581 72.5623 20.727C72.4908 20.3576 72.2584 20.0417 71.8651 19.7795C71.4718 19.5173 70.9652 19.3862 70.3455 19.3862C69.7019 19.3862 69.1834 19.5054 68.7901 19.7437C68.3968 19.9821 68.2002 20.3516 68.2002 20.8522C68.2002 21.1859 68.2955 21.466 68.4862 21.6924C68.6888 21.907 69.0047 22.0976 69.4337 22.2645C69.8747 22.4314 70.4527 22.6101 71.1679 22.8008C72.1809 23.0273 73.0093 23.2895 73.6529 23.5875C74.2965 23.8854 74.7672 24.2668 75.0652 24.7316C75.3632 25.1845 75.5121 25.7626 75.5121 26.4658C75.5121 27.2524 75.2976 27.9258 74.8685 28.486C74.4514 29.0342 73.8614 29.4573 73.0987 29.7553C72.3359 30.0532 71.4479 30.2022 70.4349 30.2022ZM80.2962 30.0234C79.5811 30.0234 78.9793 29.8983 78.4906 29.648C78.0019 29.3977 77.6384 29.0282 77.4001 28.5396C77.1617 28.039 77.0425 27.4193 77.0425 26.6803V22.6221H75.6302C75.511 22.6221 75.4097 22.5803 75.3262 22.4969C75.2428 22.4135 75.2011 22.3122 75.2011 22.193V21.1561C75.2011 21.0369 75.2428 20.9356 75.3262 20.8522C75.4097 20.7687 75.511 20.727 75.6302 20.727H77.0425V17.7593C77.0425 17.6401 77.0783 17.5388 77.1498 17.4554C77.2332 17.372 77.3405 17.3303 77.4716 17.3303H78.9197C79.0388 17.3303 79.1402 17.372 79.2236 17.4554C79.307 17.5388 79.3487 17.6401 79.3487 17.7593V20.727H81.5834C81.7026 20.727 81.8039 20.7687 81.8874 20.8522C81.9708 20.9356 82.0125 21.0369 82.0125 21.1561V22.193C82.0125 22.3122 81.9708 22.4135 81.8874 22.4969C81.8039 22.5803 81.7026 22.6221 81.5834 22.6221H79.3487V26.5015C79.3487 26.9902 79.4322 27.3716 79.599 27.6457C79.7778 27.9198 80.0817 28.0569 80.5108 28.0569H81.7443C81.8635 28.0569 81.9648 28.0986 82.0483 28.182C82.1317 28.2655 82.1734 28.3668 82.1734 28.486V29.5944C82.1734 29.7136 82.1317 29.8149 82.0483 29.8983C81.9648 29.9817 81.8635 30.0234 81.7443 30.0234H80.2962ZM86.6198 30.2022C85.6663 30.2022 84.8618 30.0354 84.2063 29.7016C83.5627 29.3679 83.0681 28.8971 82.7224 28.2893C82.3887 27.6815 82.198 26.9723 82.1504 26.1619C82.1384 25.9473 82.1325 25.6851 82.1325 25.3752C82.1325 25.0654 82.1384 24.8031 82.1504 24.5886C82.198 23.7662 82.3947 23.0571 82.7403 22.4612C83.0979 21.8533 83.5985 21.3825 84.2421 21.0488C84.8976 20.7151 85.6902 20.5482 86.6198 20.5482C87.5494 20.5482 88.3361 20.7151 88.9797 21.0488C89.6352 21.3825 90.1357 21.8533 90.4814 22.4612C90.8389 23.0571 91.0415 23.7662 91.0892 24.5886C91.1011 24.8031 91.1071 25.0654 91.1071 25.3752C91.1071 25.6851 91.1011 25.9473 91.0892 26.1619C91.0415 26.9723 90.8449 27.6815 90.4993 28.2893C90.1655 28.8971 89.6709 29.3679 89.0154 29.7016C88.3718 30.0354 87.5733 30.2022 86.6198 30.2022ZM86.6198 28.4323C87.2515 28.4323 87.7401 28.2357 88.0858 27.8424C88.4314 27.4371 88.6221 26.8472 88.6579 26.0725C88.6698 25.8937 88.6757 25.6613 88.6757 25.3752C88.6757 25.0892 88.6698 24.8568 88.6579 24.678C88.6221 23.9152 88.4314 23.3312 88.0858 22.926C87.7401 22.5208 87.2515 22.3181 86.6198 22.3181C85.9881 22.3181 85.4995 22.5208 85.1538 22.926C84.8082 23.3312 84.6175 23.9152 84.5817 24.678C84.5698 24.8568 84.5639 25.0892 84.5639 25.3752C84.5639 25.6613 84.5698 25.8937 84.5817 26.0725C84.6175 26.8472 84.8082 27.4371 85.1538 27.8424C85.4995 28.2357 85.9881 28.4323 86.6198 28.4323ZM92.2655 30.0234C92.1463 30.0234 92.045 29.9817 91.9616 29.8983C91.8782 29.8149 91.8365 29.7136 91.8365 29.5944V21.174C91.8365 21.0429 91.8782 20.9356 91.9616 20.8522C92.045 20.7687 92.1463 20.727 92.2655 20.727H93.7136C93.8328 20.727 93.9341 20.7687 94.0175 20.8522C94.1129 20.9356 94.1606 21.0429 94.1606 21.174V21.907C94.4347 21.5256 94.7863 21.2336 95.2153 21.0309C95.6563 20.8283 96.1629 20.727 96.7349 20.727H97.4679C97.599 20.727 97.7003 20.7687 97.7719 20.8522C97.8553 20.9356 97.897 21.0369 97.897 21.1561V22.4433C97.897 22.5625 97.8553 22.6638 97.7719 22.7472C97.7003 22.8306 97.599 22.8724 97.4679 22.8724H96.0735C95.5014 22.8724 95.0544 23.0333 94.7326 23.355C94.4228 23.6768 94.2678 24.1178 94.2678 24.678V29.5944C94.2678 29.7136 94.2261 29.8149 94.1427 29.8983C94.0593 29.9817 93.952 30.0234 93.8209 30.0234H92.2655ZM101.922 30.2022C100.599 30.2022 99.5505 29.8208 98.7758 29.058C98.0011 28.2953 97.584 27.2107 97.5244 25.8043C97.5124 25.6851 97.5065 25.5361 97.5065 25.3574C97.5065 25.1667 97.5124 25.0177 97.5244 24.9104C97.572 24.0165 97.7746 23.2418 98.1322 22.5863C98.5017 21.9308 99.0082 21.4302 99.6518 21.0846C100.295 20.727 101.052 20.5482 101.922 20.5482C102.888 20.5482 103.698 20.7509 104.354 21.1561C105.009 21.5494 105.504 22.1036 105.837 22.8187C106.171 23.5219 106.338 24.3383 106.338 25.268V25.6434C106.338 25.7626 106.296 25.8639 106.213 25.9473C106.129 26.0307 106.022 26.0725 105.891 26.0725H99.9557C99.9557 26.0725 99.9557 26.0903 99.9557 26.1261C99.9557 26.1619 99.9557 26.1916 99.9557 26.2155C99.9676 26.6326 100.045 27.02 100.188 27.3775C100.343 27.7232 100.564 28.0033 100.85 28.2178C101.148 28.4323 101.499 28.5396 101.904 28.5396C102.238 28.5396 102.518 28.4919 102.745 28.3966C102.971 28.2893 103.156 28.1701 103.299 28.039C103.442 27.9079 103.543 27.8006 103.603 27.7172C103.71 27.5742 103.793 27.4908 103.853 27.4669C103.925 27.4312 104.026 27.4133 104.157 27.4133H105.694C105.814 27.4133 105.909 27.449 105.981 27.5206C106.064 27.5921 106.1 27.6815 106.088 27.7887C106.076 27.9794 105.975 28.2118 105.784 28.486C105.605 28.7601 105.343 29.0282 104.997 29.2905C104.652 29.5527 104.217 29.7731 103.692 29.9519C103.18 30.1188 102.59 30.2022 101.922 30.2022ZM99.9557 24.5707H103.907V24.5171C103.907 24.0523 103.829 23.6471 103.674 23.3014C103.519 22.9558 103.293 22.6817 102.995 22.479C102.697 22.2764 102.339 22.1751 101.922 22.1751C101.505 22.1751 101.148 22.2764 100.85 22.479C100.552 22.6817 100.325 22.9558 100.17 23.3014C100.027 23.6471 99.9557 24.0523 99.9557 24.5171V24.5707Z" fill="black"/>
</svg>
