<?xml version="1.0" encoding="utf-8"?>
<!-- Generator: Adobe Illustrator 27.5.0, SVG Export Plug-In . SVG Version: 6.00 Build 0)  -->
<svg version="1.1" id="Layer_1" xmlns="http://www.w3.org/2000/svg" xmlns:xlink="http://www.w3.org/1999/xlink" x="0px" y="0px"
	 viewBox="0 0 1125.8 180.14" style="enable-background:new 0 0 1125.8 180.14;" xml:space="preserve">
<style type="text/css">
	.st0{fill:#FFFFFF;}
</style>
<g>
	<polygon class="st0" points="671.38,51.11 644.43,7.15 602.16,7.15 602.16,171.69 644.88,171.69 644.88,78.23 671.38,121.3 
		697.89,78.23 697.89,171.69 740.61,171.69 740.61,7.15 698.33,7.15 	"/>
	<polygon class="st0" points="0,41.99 31.76,41.99 31.76,171.71 74.46,171.71 74.46,41.99 106.85,41.99 106.85,7.15 0,7.15 	"/>
	<path class="st0" d="M350.6,15.72c-10.43-8.45-23-12.66-37.74-12.66c-14.85,0-27.44,4.21-37.92,12.66
		c-10.43,8.4-15.67,18.55-15.67,30.51v125.48h42.84l-0.14-65.08h21.37l0.14,65.08h42.86V46.23
		C366.35,34.27,361.07,24.12,350.6,15.72z M323.34,72.14h-21.37l0.14-25.46c0-2.39,1.04-4.44,3.11-6.13
		c2.12-1.7,4.66-2.55,7.63-2.55c2.87,0,5.37,0.86,7.48,2.55c2.13,1.7,3.15,3.74,3.15,6.13L323.34,72.14z"/>
	<rect x="394.25" y="7.06" class="st0" width="42.82" height="164.65"/>
	<polygon class="st0" points="530.31,51.11 508.36,7.06 466.09,7.06 466.09,171.71 508.8,171.71 508.8,77.86 530.31,121.3 
		530.31,171.71 572.96,171.71 572.96,7.06 530.31,7.06 	"/>
	<path class="st0" d="M857.72,15.55c-10.33-8.31-22.84-12.49-37.54-12.49c-14.63,0-27.14,4.17-37.58,12.49
		c-10.43,8.24-15.69,18.28-15.78,30.13l0.01,86.56c0.09,11.75,5.35,21.76,15.78,29.99c10.45,8.32,22.95,12.49,37.58,12.49
		c14.7,0,27.21-4.16,37.54-12.49c10.42-8.31,15.68-18.39,15.82-30.23l-0.01-86.17C873.4,33.96,868.14,23.88,857.72,15.55z
		 M827.76,137.26c-2.09,1.68-4.63,2.52-7.58,2.52c-3.01,0-5.53-0.84-7.63-2.52c-2.09-1.68-3.11-3.73-3.11-6.11l0-84.39
		c0-2.38,1.03-4.44,3.11-6.11c2.1-1.68,4.62-2.52,7.63-2.52c2.95,0,5.5,0.84,7.58,2.52c1.98,1.68,3.02,3.73,3.14,6.11l0,84.39
		C830.9,133.53,829.82,135.58,827.76,137.26z"/>
	<polygon class="st0" points="1125.8,41.86 1125.8,7.06 1030.87,7.06 1030.87,171.71 1125.8,171.71 1125.8,136.78 1073.65,136.78 
		1073.65,106.92 1118.8,106.92 1118.8,72.12 1073.33,72.12 1073.65,41.86 	"/>
	<path class="st0" d="M1004.88,63.53l-0.02-13.11c0-11.84-5.17-22.4-15.5-30.75c-10.43-8.31-22.98-12.57-37.65-12.61h-53.69v164.65
		h42.78l0.01-64.73h10.59c3.02,0.08,5.53,0.9,7.69,2.51c2.02,1.68,3.08,3.72,3.08,6.13l0.02,55.62c0,0.16-0.02,0.31-0.03,0.47h42.7
		c0-0.11,0.01-0.21,0.01-0.32l-0.02-56.88c0-10.53-4.14-15.17-12.55-23.13C1000.71,83.43,1004.88,74.06,1004.88,63.53z
		 M959.12,69.55c-2.16,1.61-4.66,2.43-7.69,2.51h-10.59l-0.02-30.05h10.59c3.02,0,5.53,0.83,7.69,2.53
		c2.02,1.63,3.08,3.65,3.08,6.02l0.02,12.85C962.2,65.83,961.14,67.88,959.12,69.55z"/>
	<path class="st0" d="M221.47,96.45c8.41-7.95,12.58-17.32,12.58-27.85l0.01-18.09c0-11.84-5.17-22.4-15.5-30.75
		C208.12,11.45,195.57,7.2,180.9,7.15h-53.69v164.56H170l-0.05-64.64h10.59c3.02,0.08,5.53,0.9,7.69,2.51
		c2.02,1.68,3.08,3.72,3.08,6.13l0.08,55.52c0,0.16-0.02,0.31-0.03,0.47h42.7c0-0.11,0.01-0.21,0.01-0.32l-0.05-51.81
		C234.02,109.04,229.88,104.41,221.47,96.45z M191.33,63.51c0,2.42-1.06,4.46-3.08,6.13c-2.16,1.61-4.66,2.43-7.69,2.51h-10.59
		l0.04-30.05h10.59c3.02,0,5.53,0.83,7.69,2.53c2.02,1.63,3.08,3.65,3.08,6.02L191.33,63.51z"/>
</g>
</svg>
