<svg width="353" height="54" viewBox="0 0 353 54" fill="none" xmlns="http://www.w3.org/2000/svg">
<g clip-path="url(#clip0_8541_7200)">
<path d="M210.515 15.1179L202.067 1.28906H188.812V53.0522H202.203V23.6501L210.515 37.1976L218.826 23.6501V53.0522H232.22V1.28906H218.966L210.515 15.1179Z" fill="black"/>
<path d="M0 12.248H9.95892V53.0593H23.3496V12.248H33.5014V1.28906H0V12.248Z" fill="black"/>
<path d="M109.933 3.98124C106.663 1.32239 102.722 0 98.0988 0C93.4751 0 89.4965 1.32239 86.2119 3.98124C82.9413 6.62603 81.3008 9.81946 81.3008 13.5826V53.0574H94.7336L94.688 32.585H101.387L101.432 53.0574H114.872V13.5826C114.872 9.81946 113.218 6.62603 109.933 3.98124ZM101.387 21.7315H94.688L94.7336 13.7233C94.7336 12.9707 95.0596 12.3271 95.7081 11.7925C96.3741 11.2579 97.1699 10.9906 98.0988 10.9906C99.0277 10.9906 99.7814 11.2579 100.444 11.7925C101.113 12.3271 101.432 12.9707 101.432 13.7233L101.387 21.7315Z" fill="black"/>
<path d="M137.045 1.25781H123.619V53.0562H137.045V1.25781Z" fill="black"/>
<path d="M166.28 15.1148L159.399 1.25781H146.145V53.0562H159.539V23.531L166.28 37.1945V53.0562H179.653V1.25781H166.28V15.1148Z" fill="black"/>
<path d="M268.944 3.92849C265.705 1.31184 261.782 0 257.172 0C252.563 0 248.661 1.31184 245.387 3.92849C242.117 6.52052 240.466 9.67878 240.438 13.4068V40.6389C240.469 44.3353 242.117 47.483 245.387 50.075C248.661 52.6952 252.584 54.0035 257.172 54.0035C261.761 54.0035 265.705 52.6952 268.944 50.075C272.211 47.4584 273.862 44.2896 273.904 40.5651V13.4525C273.858 9.72099 272.211 6.55217 268.944 3.92849ZM259.553 42.2181C258.897 42.7456 258.101 43.0094 257.176 43.0094C256.25 43.0094 255.441 42.7456 254.785 42.2181C254.13 41.6905 253.811 41.0434 253.811 40.2943V13.7479C253.811 12.9988 254.133 12.3517 254.785 11.8242C255.444 11.2966 256.233 11.0328 257.176 11.0328C258.119 11.0328 258.901 11.2966 259.553 11.8242C260.173 12.3517 260.499 12.9988 260.538 13.7479V40.2943C260.538 41.0434 260.198 41.6905 259.556 42.2181H259.553Z" fill="black"/>
<path d="M353.001 12.2062V1.25781H323.236V53.0562H353.001V42.0656H336.652V32.6716H350.807V21.7232H336.55L336.652 12.2062H353.001Z" fill="black"/>
<path d="M315.085 19.0222L315.078 14.8967C315.078 11.1722 313.458 7.84867 310.219 5.22499C306.949 2.60834 303.016 1.27188 298.413 1.25781H281.58V53.0562H294.995V32.6927H298.318C299.265 32.7174 300.054 32.9776 300.73 33.4806C301.365 34.0081 301.694 34.6517 301.694 35.4114L301.701 52.9085C301.701 52.9577 301.694 53.0069 301.694 53.0562H315.081C315.081 53.021 315.081 52.9893 315.081 52.9542L315.074 35.0597C315.074 31.7467 313.777 30.2871 311.138 27.783C313.777 25.2824 315.081 22.3352 315.081 19.0222H315.085ZM300.737 20.9178C300.061 21.4243 299.275 21.681 298.329 21.7056H295.006L294.999 12.252H298.322C299.268 12.252 300.057 12.5122 300.73 13.0468C301.365 13.5603 301.694 14.1933 301.694 14.9425L301.701 18.987C301.701 19.7467 301.368 20.3903 300.737 20.9178Z" fill="black"/>
<path d="M69.4429 29.3793C72.0825 26.8787 73.3865 23.9315 73.3865 20.6185V14.928C73.3865 11.2035 71.767 7.87992 68.528 5.25624C65.2574 2.63959 61.3244 1.30313 56.7217 1.28906H39.8887V53.0558H53.3039L53.2864 32.7205H56.6096C57.556 32.7451 58.3447 33.0054 59.0213 33.5083C59.6558 34.0358 59.9853 34.6795 59.9853 35.4391L60.0098 52.9081C60.0098 52.9573 60.0028 53.0065 60.0028 53.0558H73.39C73.39 53.0206 73.39 52.9889 73.39 52.9538L73.376 36.656C73.376 33.343 72.079 31.8834 69.4394 29.3793H69.4429ZM59.9923 19.0147C59.9923 19.7744 59.6593 20.418 59.0283 20.9456C58.3518 21.452 57.5665 21.7088 56.6201 21.7334H53.2969L53.3074 12.2797H56.6306C57.5771 12.2797 58.3658 12.5399 59.0388 13.0745C59.6733 13.588 60.0028 14.2211 60.0028 14.9702L59.9923 19.0147Z" fill="black"/>
</g>
</svg>
